# xmcd
#
# Track frame offsets:
#	150
#	14235
#	28353
#	38226
#	50406
#	65351
#	77549
#	91610
#	105112
#	116767
#	131662
#	143541
#	154317
#	165774
#	181481
#	194080
#	206805
#	220791
#	232551
#	245103
#	261765
#	274566
#	290502
#
# Disc length: 4095 seconds
#
# Revision: 0
# Processed by: cddbd v1.4PL0 Copyright (c) Steve Scherf et al.
# Submitted via: EasyCDDAExtractor 4.6.9.1
#
DISCID=430ffd17
DTITLE=Linda Davis - The Louisiana Hayride Archives
DYEAR=1900
DGENRE=Country
TTITLE0=It Was Always You
TTITLE1=Amazing Grace
TTITLE2=Break My Mind
TTITLE3=Country Roads
TTITLE4=Desperado
TTITLE5=High Steppin'
TTITLE6=Please Don't Tell Me How The Story Ends
TTITLE7=I Can't Stop Loving You
TTITLE8=I Will Always Love You
TTITLE9=I'll Love Away Your Troubles For Awhile
TTITLE10=Knee Deep In Loving You
TTITLE11=Let's All Go Down To The River
TTITLE12=Listen To A Country Song
TTITLE13=Love Train
TTITLE14=One Of These Days
TTITLE15=Paper Roses
TTITLE16=Pure Love
TTITLE17=Silver Threads And Golden Needles
TTITLE18=Standing Room Only
TTITLE19=A Stranger In My Place
TTITLE20=My Sweet Revenge
TTITLE21=Too Far Gone	
TTITLE22=Why Me Lord?
EXTD=
EXTT0=
EXTT1=
EXTT2=
EXTT3=
EXTT4=
EXTT5=
EXTT6=
EXTT7=
EXTT8=
EXTT9=
EXTT10=
EXTT11=
EXTT12=
EXTT13=
EXTT14=
EXTT15=
EXTT16=
EXTT17=
EXTT18=
EXTT19=
EXTT20=
EXTT21=
EXTT22=
PLAYORDER=
